<?xml version="1.0" encoding="UTF-8"?>
<svg version="1.1" xmlns="http://www.w3.org/2000/svg" width="500" height="500">
<path d="M0 0 C2.55107483 2.43315149 5.03992431 4.91600899 7.51953125 7.421875 C9.47500919 9.3552393 11.43915258 11.13463077 13.5625 12.875 C16.06005152 14.99166131 18.22092619 16.98520196 19.9375 19.8125 C19.9375 20.4725 19.9375 21.1325 19.9375 21.8125 C20.5975 21.8125 21.2575 21.8125 21.9375 21.8125 C21.9375 22.4725 21.9375 23.1325 21.9375 23.8125 C22.5975 23.8125 23.2575 23.8125 23.9375 23.8125 C24.86043076 25.12590147 25.76828231 26.45107417 26.625 27.80859375 C28.17679884 30.17785805 29.86587716 32.4196352 31.5625 34.6875 C40.36825688 46.77095527 47.71688893 59.72408405 54.85498047 72.83984375 C55.79292129 74.54903676 56.75559468 76.24461322 57.72265625 77.9375 C61.537611 84.65025926 64.37212755 91.53484765 66.9375 98.8125 C67.25976562 99.67875 67.58203125 100.545 67.9140625 101.4375 C70.15626446 107.97550945 70.27889008 113.95055949 69.9375 120.8125 C69.89109375 122.42898438 69.89109375 122.42898438 69.84375 124.078125 C69.22511525 137.13131819 64.74890472 149.00130331 55.125 158.0859375 C46.15160487 165.16851009 35.96564795 168.43387985 24.9375 170.8125 C24.02226562 171.02648437 23.10703125 171.24046875 22.1640625 171.4609375 C15.52568695 172.80418651 8.86124518 173.06504067 2.11328125 173.328125 C0.53593704 173.39138222 0.53593704 173.39138222 -1.07327271 173.45591736 C-12.85827161 173.90958115 -24.64603102 174.16287032 -36.4375 174.375 C-37.55793701 174.39551422 -38.67837402 174.41602844 -39.83276367 174.43716431 C-53.36843841 174.6816185 -66.90572373 174.92441195 -80.44366455 174.98873901 C-82.48250345 174.99957484 -84.52128946 175.01926011 -86.56005859 175.03930664 C-102.97473035 175.05546069 -118.45187214 172.08609743 -131.0625 160.8125 C-131.84947266 160.11060547 -131.84947266 160.11060547 -132.65234375 159.39453125 C-134.0625 158.0625 -134.0625 158.0625 -136.0625 155.8125 C-136.0625 155.1525 -136.0625 154.4925 -136.0625 153.8125 C-136.7225 153.8125 -137.3825 153.8125 -138.0625 153.8125 C-146.63786195 142.78458453 -148.70113445 127.36543061 -147.0625 113.8125 C-145.19075026 101.41872851 -141.98808596 90.11725623 -136.17675781 78.99755859 C-133.77344626 74.28466674 -131.5711053 69.47093261 -129.3125 64.6875 C-128.38350366 62.72499919 -127.45138731 60.76397118 -126.515625 58.8046875 C-126.11504883 57.96276855 -125.71447266 57.12084961 -125.30175781 56.25341797 C-122.53527183 50.80437801 -119.10288605 45.74976183 -115.78125 40.62890625 C-114.02262314 37.85030716 -114.02262314 37.85030716 -112.6640625 34.91796875 C-110.74198673 31.19101696 -108.41627429 27.93420451 -105.9375 24.5625 C-102.75135895 20.3434748 -102.75135895 20.3434748 -100.0625 15.8125 C-99.4025 15.8125 -98.7425 15.8125 -98.0625 15.8125 C-97.8046875 15.25046875 -97.546875 14.6884375 -97.28125 14.109375 C-95.92080223 11.54545421 -94.33461038 9.36023635 -92.5625 7.0625 C-91.9540625 6.26328125 -91.345625 5.4640625 -90.71875 4.640625 C-90.1721875 4.03734375 -89.625625 3.4340625 -89.0625 2.8125 C-88.4025 2.8125 -87.7425 2.8125 -87.0625 2.8125 C-87.0625 2.1525 -87.0625 1.4925 -87.0625 0.8125 C-86.134375 0.68875 -86.134375 0.68875 -85.1875 0.5625 C-82.90165419 0.03574823 -82.90165419 0.03574823 -82.16015625 -2.046875 C-79.01658282 -8.17740254 -70.01178469 -12.73488954 -63.68359375 -15.0625 C-40.71734502 -22.35559883 -17.67854424 -15.9439559 0 0 Z " fill="#E5B68A" transform="translate(289.0625,236.1875)"/>
<path d="M0 0 C0.99 0.66 1.98 1.32 3 2 C3 2.66 3 3.32 3 4 C3.58652344 4.23589844 4.17304688 4.47179687 4.77734375 4.71484375 C11.00350948 8.31485873 14.517294 16.23239053 16.4921875 22.89453125 C18.12849493 29.67891361 18.18373437 36.09985644 18.1875 43.0625 C18.19974609 44.22716797 18.21199219 45.39183594 18.22460938 46.59179688 C18.24283089 57.49433627 17.03148287 67.6995279 13 77.875 C12.6994873 78.63748047 12.39897461 79.39996094 12.08935547 80.18554688 C8.83831819 88.00371186 4.29897852 94.45359253 -1 101 C-2.11568359 102.45792969 -2.11568359 102.45792969 -3.25390625 103.9453125 C-8.26927549 110.10013056 -13.08019737 113.61487232 -21 115 C-32.18217475 115.4570816 -42.45926672 109.67884143 -50.8125 102.625 C-62.66121551 88.40654139 -61.99176249 71.67684684 -60.76171875 54 C-58.84674618 35.74005953 -50.49717084 14.62082419 -36.2578125 2.57421875 C-32.47561455 -0.06285006 -28.35407552 -1.561531 -24 -3 C-15.58967337 -5.80344221 -7.89744787 -3.24910018 0 0 Z " fill="#E5B78B" transform="translate(327,93)"/>
<path d="M0 0 C14.15885992 8.45246934 20.31154781 22.92349741 24.34765625 38.35546875 C28.74301927 56.37181264 28.66028719 74.50533207 19.80859375 91.2890625 C19.31488281 91.99804688 18.82117188 92.70703125 18.3125 93.4375 C17.6525 93.4375 16.9925 93.4375 16.3125 93.4375 C16.3125 94.0975 16.3125 94.7575 16.3125 95.4375 C15.6525 95.4375 14.9925 95.4375 14.3125 95.4375 C14.3125 96.0975 14.3125 96.7575 14.3125 97.4375 C12.703125 98.69140625 12.703125 98.69140625 10.5625 100 C9.86640625 100.43441406 9.1703125 100.86882812 8.453125 101.31640625 C2.70841596 104.32504036 -4.73343207 104.58903557 -10.9140625 102.7890625 C-13.23451222 101.77223622 -15.44756536 100.62171351 -17.6875 99.4375 C-19.38326172 98.63892578 -19.38326172 98.63892578 -21.11328125 97.82421875 C-34.48223418 91.51831008 -43.68977718 83.49690181 -48.84375 69.16796875 C-54.1327863 52.05205961 -55.59310558 32.47677171 -47.6875 15.875 C-44.52912896 10.44654977 -44.52912896 10.44654977 -42.6875 8.4375 C-42.0275 8.4375 -41.3675 8.4375 -40.6875 8.4375 C-40.46964844 7.84324219 -40.25179687 7.24898437 -40.02734375 6.63671875 C-38.24195806 3.70618771 -36.28008058 2.81534043 -33.25 1.25 C-32.28191406 0.74082031 -31.31382812 0.23164062 -30.31640625 -0.29296875 C-21.44630835 -4.57644842 -8.84329868 -4.21964506 0 0 Z " fill="#E6B88C" transform="translate(208.6875,112.5625)"/>
<path d="M0 0 C12.39411948 7.62401429 19.79030985 17.04166683 24.1328125 30.875 C26.91818384 43.23263339 27.65386185 60.76536724 22.375 72.4609375 C17.43184316 80.16306559 10.98738487 83.78152887 2.375 86.4609375 C1.77558594 86.79351562 1.17617187 87.12609375 0.55859375 87.46875 C-5.4029953 90.17759368 -13.40568286 90.18448595 -19.625 88.25390625 C-26.31541155 85.60126261 -32.50161485 82.58432265 -37.625 77.4609375 C-38.5 75.1484375 -38.5 75.1484375 -38.625 73.4609375 C-39.285 73.4609375 -39.945 73.4609375 -40.625 73.4609375 C-48.9267471 64.06810364 -51.8017664 51.35254302 -51.8125 39.1484375 C-51.82474609 38.42720703 -51.83699219 37.70597656 -51.84960938 36.96289062 C-51.87025509 29.28956658 -50.17973598 22.99961801 -46.6875 16.1484375 C-46.18347656 15.14167969 -45.67945312 14.13492188 -45.16015625 13.09765625 C-43.80974982 10.77825589 -42.71121118 9.12649575 -40.625 7.4609375 C-39.965 7.4609375 -39.305 7.4609375 -38.625 7.4609375 C-38.625 6.8009375 -38.625 6.1409375 -38.625 5.4609375 C-37.965 5.4609375 -37.305 5.4609375 -36.625 5.4609375 C-36.625 4.8009375 -36.625 4.1409375 -36.625 3.4609375 C-25.63131036 -3.13527629 -12.0952763 -5.76160121 0 0 Z " fill="#E6B88C" transform="translate(139.625,198.5390625)"/>
<path d="M0 0 C6.04616252 4.53238257 9.74877911 10.71458071 11.63671875 17.9765625 C13.33753868 34.68485875 9.26790853 46.93294018 0.63671875 60.9765625 C-0.02328125 60.9765625 -0.68328125 60.9765625 -1.36328125 60.9765625 C-1.36328125 61.6365625 -1.36328125 62.2965625 -1.36328125 62.9765625 C-2.02328125 62.9765625 -2.68328125 62.9765625 -3.36328125 62.9765625 C-3.59273438 63.55535156 -3.8221875 64.13414062 -4.05859375 64.73046875 C-8.73587914 72.78268162 -19.91734122 77.15721576 -28.36328125 79.9765625 C-37.54501949 82.29065913 -47.95610358 82.44892501 -56.26953125 77.61328125 C-60.29528939 74.46628001 -63.09137208 70.52038083 -65.36328125 65.9765625 C-66.76877441 46.50044296 -62.51109368 28.7365032 -49.71875 13.49609375 C-36.32798331 -0.82736316 -18.86942987 -10.63137437 0 0 Z " fill="#E4B78B" transform="translate(400.36328125,183.0234375)"/>
<path d="M0 0 C3.75617389 0.37561739 6.59647248 1.21171226 9.875 3 C13.85782237 5.0815883 17.54796935 5.71024904 22 6 C22.87238941 6.08200622 23.74477882 6.16401243 24.64360428 6.24850368 C31.54885972 6.88682348 38.3452515 7.11454629 45.27636719 7.02172852 C46.33150513 7.01212097 47.38664307 7.00251343 48.47375488 6.99261475 C51.91487081 6.95998677 55.35584489 6.91951999 58.796875 6.87890625 C61.20110596 6.85456962 63.60534197 6.83072791 66.00958252 6.80735779 C72.30267141 6.74486913 78.59566948 6.67570481 84.88867188 6.60510254 C91.32417709 6.53409877 97.75974611 6.46947431 104.1953125 6.40429688 C116.79694477 6.27573926 129.3984937 6.14033902 142 6 C142 6.33 142 6.66 142 7 C138.69074816 7.72516719 135.5372862 8.15977591 132.15380859 8.29663086 C130.75033676 8.35519005 130.75033676 8.35519005 129.31851196 8.41493225 C128.31363739 8.45202805 127.30876282 8.48912384 126.2734375 8.52734375 C125.21482513 8.56866928 124.15621277 8.60999481 123.06552124 8.65257263 C111.25503311 9.09516028 99.44154757 9.34991916 87.625 9.5625 C86.50456299 9.58301422 85.38412598 9.60352844 84.22973633 9.62466431 C70.69406159 9.8691185 57.15677627 10.11191195 43.61883545 10.17623901 C41.57999655 10.18707484 39.54121054 10.20676011 37.50244141 10.22680664 C26.90675858 10.23723409 17.05161081 9.36242366 7.3125 5 C6.13300781 4.484375 4.95351562 3.96875 3.73828125 3.4375 C1 2 1 2 0 0 Z " fill="#ECD3B9" transform="translate(165,401)"/>
<path d="M0 0 C2.31237149 1.17781224 4.4688501 2.39065616 6.58984375 3.8828125 C5.92984375 4.2128125 5.26984375 4.5428125 4.58984375 4.8828125 C3.25651042 4.21614583 1.92317708 3.54947917 0.58984375 2.8828125 C-4.50505046 1.81553344 -9.6011453 1.57248528 -14.78515625 1.3203125 C-15.61660156 1.27712891 -16.44804687 1.23394531 -17.3046875 1.18945312 C-19.33968853 1.08419445 -21.37490328 0.98308178 -23.41015625 0.8828125 C-23.67828125 1.5015625 -23.94640625 2.1203125 -24.22265625 2.7578125 C-25.41015625 4.8828125 -25.41015625 4.8828125 -28.41015625 6.8828125 C-29.40015625 6.8828125 -30.39015625 6.8828125 -31.41015625 6.8828125 C-31.65765625 7.6459375 -31.90515625 8.4090625 -32.16015625 9.1953125 C-33.41015625 11.8828125 -33.41015625 11.8828125 -35.28515625 13.2578125 C-38.28731047 15.55357749 -39.66847938 18.61536911 -41.41015625 21.8828125 C-41.96703125 22.7903125 -42.52390625 23.6978125 -43.09765625 24.6328125 C-44.53843283 26.92620365 -44.53843283 26.92620365 -45.41015625 29.8828125 C-46.07015625 29.8828125 -46.73015625 29.8828125 -47.41015625 29.8828125 C-47.24257812 30.83800781 -47.075 31.79320312 -46.90234375 32.77734375 C-46.24219772 37.38794263 -46.42563296 41.92617186 -46.53515625 46.5703125 C-46.64598263 54.50606452 -45.99279907 61.31935854 -43.41015625 68.8828125 C-44.40015625 69.3778125 -44.40015625 69.3778125 -45.41015625 69.8828125 C-45.89735838 68.53151603 -46.37443809 67.17656934 -46.84765625 65.8203125 C-47.11449219 65.06621094 -47.38132813 64.31210938 -47.65625 63.53515625 C-51.7447149 49.15138595 -50.82882799 30.79952315 -44.41015625 17.3203125 C-41.25178521 11.89186227 -41.25178521 11.89186227 -39.41015625 9.8828125 C-38.75015625 9.8828125 -38.09015625 9.8828125 -37.41015625 9.8828125 C-37.19230469 9.28855469 -36.97445312 8.69429687 -36.75 8.08203125 C-34.96461431 5.15150021 -33.00273683 4.26065293 -29.97265625 2.6953125 C-29.00457031 2.18613281 -28.03648437 1.67695312 -27.0390625 1.15234375 C-19.31132501 -2.57947599 -8.16690797 -2.6755277 0 0 Z " fill="#E7C6A6" transform="translate(205.41015625,111.1171875)"/>
<path d="M0 0 C0.33 1.32 0.66 2.64 1 4 C0.01 4.66 -0.98 5.32 -2 6 C-2.97348889 8.11184094 -2.97348889 8.11184094 -3.625 10.5 C-4.95901639 14.91803279 -4.95901639 14.91803279 -6 17 C-6.66 17 -7.32 17 -8 17 C-8.0825 17.556875 -8.165 18.11375 -8.25 18.6875 C-9 21 -9 21 -10.9375 23.375 C-13.18891689 26.24043968 -14.00474311 28.5166009 -15 32 C-16.20715038 36.0238346 -17.47023718 38.69184863 -20 42 C-21.02188748 44.0805629 -21.99462991 46.17543967 -22.9375 48.29296875 C-24 50 -24 50 -27 51 C-25.13945063 44.82697263 -22.79077145 39.26910369 -19.6875 33.625 C-19.29087158 32.89039551 -18.89424316 32.15579102 -18.4855957 31.39892578 C-17.33018504 29.26236464 -16.16571815 27.13094932 -15 25 C-14.4121875 23.91203125 -13.824375 22.8240625 -13.21875 21.703125 C-11.82472462 19.12844547 -10.41667883 16.5622648 -9 14 C-8.64421875 13.34773438 -8.2884375 12.69546875 -7.921875 12.0234375 C-5.56458703 7.77657742 -2.8710794 3.90785807 0 0 Z " fill="#EACCAF" transform="translate(181,264)"/>
<path d="M0 0 C1.31404941 3.74781697 0.75769011 6.81768996 0.125 10.6875 C-0.05804688 11.84636719 -0.24109375 13.00523437 -0.4296875 14.19921875 C-1 17 -1 17 -2 18 C-2.15873955 20.21687994 -2.25133837 22.43855298 -2.31640625 24.66015625 C-2.33718735 25.32462265 -2.35796844 25.98908905 -2.37937927 26.6736908 C-2.44493658 28.80318543 -2.50378785 30.93280668 -2.5625 33.0625 C-2.60567939 34.50326847 -2.64929349 35.94402399 -2.69335938 37.38476562 C-2.80062393 40.9230404 -2.90187371 44.46145869 -3 48 C-2.34 48 -1.68 48 -1 48 C-0.67 51.63 -0.34 55.26 0 59 C-2 58 -2 58 -3.0625 56.0625 C-8.17386189 39.36538448 -6.18117493 16.01486231 0 0 Z " fill="#E4CAA8" transform="translate(271,127)"/>
<path d="M0 0 C-3.75 1.125 -3.75 1.125 -6 0 C-8.37123246 -0.23029956 -10.74741943 -0.41119942 -13.125 -0.5625 C-14.40632813 -0.64628906 -15.68765625 -0.73007813 -17.0078125 -0.81640625 C-18.48894531 -0.90728516 -18.48894531 -0.90728516 -20 -1 C-20 -0.34 -20 0.32 -20 1 C-21.0725 1.226875 -22.145 1.45375 -23.25 1.6875 C-27.44425519 3.15548932 -28.51177883 4.44539832 -31 8 C-34 10 -34 10 -38 10 C-38.33 11.65 -38.66 13.3 -39 15 C-39.99 15.33 -40.98 15.66 -42 16 C-42 16.99 -42 17.98 -42 19 C-42.99 19.33 -43.98 19.66 -45 20 C-42.01545457 11.54378794 -36.46433553 4.68764355 -28.36328125 0.703125 C-25.92749598 -0.27830089 -23.49306015 -1.17636023 -21 -2 C-13.64917364 -4.45027545 -7.01229919 -2.78502663 0 0 Z " fill="#EAD1B2" transform="translate(324,92)"/>
<path d="M0 0 C2.95417295 1.3715803 5.52711406 2.86820178 8 5 C8.33 5.99 8.66 6.98 9 8 C11.01508358 8.73323796 11.01508358 8.73323796 13 9 C13 9.66 13 10.32 13 11 C22.07017674 13.39561147 30.64224564 14.59314111 40 15 C40 14.34 40 13.68 40 13 C41.32 13.33 42.64 13.66 44 14 C38.10158536 18.00057008 31.80814465 18.46804948 24.79296875 17.78515625 C16.74713634 16.06456072 8.79829985 11.79829985 3 6 C2.125 3.6875 2.125 3.6875 2 2 C1.34 2 0.68 2 0 2 C0 1.34 0 0.68 0 0 Z " fill="#E7CBAC" transform="translate(99,270)"/>
<path d="M0 0 C0.66 0.33 1.32 0.66 2 1 C0.61198929 4.35435922 -0.88629 6.11290303 -4 8 C-4.99 8 -5.98 8 -7 8 C-7.08636719 8.58136719 -7.17273438 9.16273438 -7.26171875 9.76171875 C-8.20286159 12.61502481 -9.60130315 13.79821864 -11.8125 15.8125 C-15.4728786 19.31600524 -17.64282612 22.54756045 -20 27 C-21.5625 28.9375 -21.5625 28.9375 -23 30 C-23.99 30 -24.98 30 -26 30 C-24.87548273 27.0280615 -23.77706209 24.66559313 -22 22 C-21.34 22 -20.68 22 -20 22 C-19.7421875 21.43796875 -19.484375 20.8759375 -19.21875 20.296875 C-17.85830223 17.73295421 -16.27211038 15.54773635 -14.5 13.25 C-13.8915625 12.45078125 -13.283125 11.6515625 -12.65625 10.828125 C-12.1096875 10.22484375 -11.563125 9.6215625 -11 9 C-10.34 9 -9.68 9 -9 9 C-9 8.34 -9 7.68 -9 7 C-8.38125 6.9175 -7.7625 6.835 -7.125 6.75 C-4.83330129 6.20673909 -4.83330129 6.20673909 -3.9375 4.0625 C-3.628125 3.381875 -3.31875 2.70125 -3 2 C-2.01 1.34 -1.02 0.68 0 0 Z " fill="#E8CBAD" transform="translate(211,230)"/>
<path d="M0 0 C2.38447141 3.57670711 2.92464664 6.91056513 3.625 11.0625 C3.75543701 11.82965332 3.88587402 12.59680664 4.02026367 13.38720703 C5.73687081 23.99142725 6.08507232 35.22021932 1 45 C1.00523682 44.04109863 1.01047363 43.08219727 1.01586914 42.09423828 C1.03394679 38.54216441 1.04544215 34.99009463 1.05493164 31.43798828 C1.05996552 29.89956987 1.06679308 28.36115625 1.07543945 26.82275391 C1.08754639 24.61359474 1.09323769 22.40449874 1.09765625 20.1953125 C1.10281754 19.50567413 1.10797882 18.81603577 1.11329651 18.10549927 C1.16318164 14.42940345 1.16318164 14.42940345 0 11 C-0.07033769 9.12620395 -0.0843022 7.24998898 -0.0625 5.375 C-0.05347656 4.37210938 -0.04445312 3.36921875 -0.03515625 2.3359375 C-0.02355469 1.56507813 -0.01195312 0.79421875 0 0 Z " fill="#E9CEB1" transform="translate(231,148)"/>
<path d="M0 0 C0.33 0.99 0.66 1.98 1 3 C-0.37397791 5.32728858 -1.76600181 7.40660378 -3.375 9.5625 C-3.82746094 10.1807666 -4.27992188 10.7990332 -4.74609375 11.43603516 C-8.79793902 16.89163601 -13.02822576 22.34967668 -18 27 C-18.66 27 -19.32 27 -20 27 C-19.67 25.35 -19.34 23.7 -19 22 C-18.38125 21.938125 -17.7625 21.87625 -17.125 21.8125 C-14.72238859 21.171081 -14.72238859 21.171081 -13.75 18.4375 C-13.5025 17.633125 -13.255 16.82875 -13 16 C-12.01 16 -11.02 16 -10 16 C-9.89558594 15.27425781 -9.79117187 14.54851562 -9.68359375 13.80078125 C-8.93657973 10.74015809 -7.82451352 8.78528522 -6.0625 6.1875 C-5.53785156 5.39730469 -5.01320313 4.60710937 -4.47265625 3.79296875 C-3.98667969 3.20128906 -3.50070312 2.60960937 -3 2 C-2.34 2 -1.68 2 -1 2 C-0.67 1.34 -0.34 0.68 0 0 Z " fill="#E7CAAB" transform="translate(335,177)"/>
<path d="M0 0 C4.10763012 4.10763012 4.13616992 10.15118449 4.1875 15.6875 C4.14243903 17.79211234 4.07933282 19.89640072 4 22 C3.97035156 23.08023437 3.94070313 24.16046875 3.91015625 25.2734375 C3.53503513 32.97714442 2.72543341 42.27456659 -3 48 C-3.125 45.125 -3.125 45.125 -3 42 C-2.34 41.34 -1.68 40.68 -1 40 C-0.54188325 38.02764667 -0.54188325 38.02764667 -0.375 35.875 C-0.25125 34.59625 -0.1275 33.3175 0 32 C0.33 32 0.66 32 1 32 C1.02914348 27.79168132 1.04684712 23.58338878 1.0625 19.375 C1.07087891 18.18519531 1.07925781 16.99539063 1.08789062 15.76953125 C1.09111328 14.61582031 1.09433594 13.46210938 1.09765625 12.2734375 C1.10551147 10.68668213 1.10551147 10.68668213 1.11352539 9.06787109 C0.99875578 5.96637654 0.57696282 3.04652343 0 0 Z " fill="#F0D7BB" transform="translate(355,335)"/>
<path d="M0 0 C0.33 0 0.66 0 1 0 C1.09765625 6.15234375 1.09765625 6.15234375 1 8 C0.67 8.33 0.34 8.66 0 9 C-1.73491037 21.23004718 -1.39880117 33.76048979 0 46 C-3.79266954 40.3109957 -4.38786379 33.83909698 -4.375 27.125 C-4.37628906 26.40900635 -4.37757813 25.6930127 -4.37890625 24.95532227 C-4.21583561 16.39318735 -2.16036767 8.24604624 0 0 Z " fill="#E9CEB3" transform="translate(146,332)"/>
<path d="M0 0 C4.57695048 0.45769505 7.78360223 1.76870088 11.6796875 4.0625 C18.99644323 7.01876494 28.22453405 6.50828252 36 7.0625 C37.87751953 7.19881836 37.87751953 7.19881836 39.79296875 7.33789062 C42.86185047 7.56044312 45.93085637 7.7810941 49 8 C49 8.33 49 8.66 49 9 C42.33223874 9.06037208 35.66776818 9.0545914 29 9 C27.69546875 8.99613281 26.3909375 8.99226563 25.046875 8.98828125 C16.09218763 8.69183612 8.8215942 6.31733677 1 2 C0.67 1.34 0.34 0.68 0 0 Z " fill="#E0C09E" transform="translate(165,401)"/>
<path d="M0 0 C0.66 0.33 1.32 0.66 2 1 C-0.625 7.75 -0.625 7.75 -4 10 C-4.87549454 12.30504602 -5.45099658 14.61555261 -6.05859375 17.00390625 C-6.36925781 17.66261719 -6.67992188 18.32132813 -7 19 C-9.03515625 19.58984375 -9.03515625 19.58984375 -11 20 C-11.33 20.99 -11.66 21.98 -12 23 C-11.43906147 18.42356247 -10.21477371 14.9140708 -8.125 10.8125 C-7.61195312 9.78769531 -7.09890625 8.76289063 -6.5703125 7.70703125 C-5.2058067 5.35478618 -4.11562135 3.68209238 -2 2 C-1.34 2 -0.68 2 0 2 C0 1.34 0 0.68 0 0 Z " fill="#E7CAAA" transform="translate(101,204)"/>
<path d="M0 0 C2.31237149 1.17781224 4.4688501 2.39065616 6.58984375 3.8828125 C5.92984375 4.2128125 5.26984375 4.5428125 4.58984375 4.8828125 C3.25651042 4.21614583 1.92317708 3.54947917 0.58984375 2.8828125 C-4.45361831 1.79440579 -9.39986191 1.66632176 -14.53515625 1.6328125 C-15.33308594 1.6121875 -16.13101563 1.5915625 -16.953125 1.5703125 C-21.47836268 1.54009388 -23.9512693 1.68802776 -27.41015625 4.8828125 C-29.66015625 4.5703125 -29.66015625 4.5703125 -31.41015625 3.8828125 C-21.88185039 -1.69034753 -10.7627358 -3.52593636 0 0 Z " fill="#EACFB5" transform="translate(205.41015625,111.1171875)"/>
<path d="M0 0 C0.33 0 0.66 0 1 0 C2.91434268 7.29843148 3.21928376 14.49819812 3.25 22 C3.25902344 22.93223389 3.26804688 23.86446777 3.27734375 24.82495117 C3.27347656 25.70771729 3.26960937 26.5904834 3.265625 27.5 C3.26336914 28.2940625 3.26111328 29.088125 3.25878906 29.90625 C3 32 3 32 1 35 C0 34 0 34 -0.11352539 30.76538086 C-0.11336631 29.33185874 -0.10767407 27.89833088 -0.09765625 26.46484375 C-0.0962413 25.71159317 -0.09482635 24.95834259 -0.09336853 24.18226624 C-0.08775376 21.7673044 -0.07519883 19.35243399 -0.0625 16.9375 C-0.0574869 15.30403779 -0.05292366 13.67057414 -0.04882812 12.03710938 C-0.03777954 8.02470415 -0.02050506 4.01236759 0 0 Z " fill="#E7CAAE" transform="translate(162,227)"/>
<path d="M0 0 C0.70656738 0.03448242 1.41313477 0.06896484 2.14111328 0.10449219 C5.77744232 0.34359806 7.59098734 0.62315823 10.6875 2.6875 C9.39457031 2.65269531 8.10164063 2.61789063 6.76953125 2.58203125 C-2.43233577 2.41187248 -10.78526829 2.47194468 -19.68359375 5.03125 C-22.3341146 5.69289562 -24.59317542 5.80594608 -27.3125 5.6875 C-26.3125 3.6875 -26.3125 3.6875 -24.30859375 2.87109375 C-15.91643203 0.42391377 -8.72746582 -0.4618939 0 0 Z " fill="#E6CDAE" transform="translate(249.3125,218.3125)"/>
<path d="M0 0 C0.66 0 1.32 0 2 0 C3.23086034 3.69258103 2.66728638 4.58206293 1 8 C0.54625 8.598125 0.0925 9.19625 -0.375 9.8125 C-2.34879407 12.46953048 -3.59453318 15.27688909 -4.9375 18.29296875 C-6 20 -6 20 -9 21 C-6.76686274 13.55620912 -3.59727921 6.88023305 0 0 Z " fill="#E6C8A6" transform="translate(163,294)"/>
<path d="M0 0 C0 3.60673886 -0.97385967 5.05612588 -2.8125 8.125 C-3.33457031 9.01445312 -3.85664063 9.90390625 -4.39453125 10.8203125 C-6 13 -6 13 -9 14 C-10.12085312 16.3430809 -10.12085312 16.3430809 -11 19 C-11.65213539 20.34050052 -12.31379969 21.67661368 -13 23 C-13.66 23 -14.32 23 -15 23 C-13.75281148 17.65586425 -12.05270392 14.21385404 -8.625 9.8125 C-7.85414063 8.80832031 -7.08328125 7.80414063 -6.2890625 6.76953125 C-4.29878114 4.36149458 -2.25534783 2.1575131 0 0 Z " fill="#EBD0B1" transform="translate(356,191)"/>
<path d="M0 0 C0.89267578 0.00322266 1.78535156 0.00644531 2.70507812 0.00976562 C4.09823242 0.02233398 4.09823242 0.02233398 5.51953125 0.03515625 C6.45990234 0.03966797 7.40027344 0.04417969 8.36914062 0.04882812 C10.69016837 0.06060999 13.01106769 0.07706067 15.33203125 0.09765625 C12.66398478 2.76570272 9.97994875 3.55747103 6.33203125 4.09765625 C1.22204693 4.04271018 -3.16507332 3.62341828 -7.66796875 1.09765625 C-4.78531726 0.13677242 -2.99134604 -0.01905316 0 0 Z " fill="#E8CDAC" transform="translate(299.66796875,203.90234375)"/>
<path d="M0 0 C4.39487527 4.39487527 3.24242946 11.14646404 3.25537109 16.98608398 C3.18122727 23.21479316 2.61410243 29.25616943 0 35 C-0.99 35.495 -0.99 35.495 -2 36 C-1.505 31.545 -1.505 31.545 -1 27 C-0.34 27 0.32 27 1 27 C1.12224626 17.9401941 0.83930594 9.02253886 0 0 Z " fill="#EFDAC4" transform="translate(409,195)"/>
<path d="M0 0 C2.475 0.99 2.475 0.99 5 2 C5 2.66 5 3.32 5 4 C5.556875 4.185625 6.11375 4.37125 6.6875 4.5625 C10.03134807 6.64110826 12.04807828 9.60813602 14 13 C14 13.66 14 14.32 14 15 C13.01 15 12.02 15 11 15 C11 13.68 11 12.36 11 11 C10.071875 10.773125 9.14375 10.54625 8.1875 10.3125 C4.44866356 8.77297911 3.79760571 7.50533113 2 4 C1.34 3.67 0.68 3.34 0 3 C0 2.01 0 1.02 0 0 Z " fill="#E4C5A3" transform="translate(325,93)"/>
<path d="M0 0 C-5.50220635 3.87655447 -8.89544531 5.14214589 -15.5625 5.1875 C-16.51253906 5.20167969 -17.46257812 5.21585938 -18.44140625 5.23046875 C-21 5 -21 5 -24 3 C-23.31292969 3.02320313 -22.62585938 3.04640625 -21.91796875 3.0703125 C-21.01691406 3.08835938 -20.11585938 3.10640625 -19.1875 3.125 C-18.29417969 3.14820313 -17.40085938 3.17140625 -16.48046875 3.1953125 C-13.74597286 3.18285827 -13.74597286 3.18285827 -11 1 C-3.75609756 -1.50243902 -3.75609756 -1.50243902 0 0 Z " fill="#EED2B8" transform="translate(221,211)"/>
<path d="M0 0 C0.33 0 0.66 0 1 0 C1.33 4.95 1.66 9.9 2 15 C2.33 15 2.66 15 3 15 C3.36368892 16.60203467 3.71561952 18.20674203 4.0625 19.8125 C4.25972656 20.70582031 4.45695312 21.59914062 4.66015625 22.51953125 C5 25 5 25 4 28 C4.66 28.33 5.32 28.66 6 29 C5.34 29.66 4.68 30.32 4 31 C0.21448188 20.33633065 -0.48756345 11.18687244 0 0 Z " fill="#F0D8BD" transform="translate(88,229)"/>
<path d="M0 0 C0.66 0.33 1.32 0.66 2 1 C-1.10823703 6.22183821 -5.15302371 11.84184341 -11.21875 13.66796875 C-11.8065625 13.77753906 -12.394375 13.88710938 -13 14 C-13 13.01 -13 12.02 -13 11 C-11.02 10.67 -9.04 10.34 -7 10 C-6.34 8.02 -5.68 6.04 -5 4 C-4.01 4.33 -3.02 4.66 -2 5 C-1.855625 4.360625 -1.71125 3.72125 -1.5625 3.0625 C-1 1 -1 1 0 0 Z " fill="#ECCFB5" transform="translate(161,268)"/>
<path d="M0 0 C1.26273626 3.67997423 0.82645918 6.6918757 0.25 10.5 C0.09015625 11.6240625 -0.0696875 12.748125 -0.234375 13.90625 C-1.00189021 17.00763801 -1.89614913 18.64183749 -4 21 C-4.5939348 13.42733125 -2.43286286 7.12481267 0 0 Z " fill="#EED4BB" transform="translate(271,127)"/>
<path d="M0 0 C0.66 0.33 1.32 0.66 2 1 C1.21366078 2.14949588 0.42073742 3.29448989 -0.375 4.4375 C-0.81585938 5.07558594 -1.25671875 5.71367188 -1.7109375 6.37109375 C-3 8 -3 8 -5 9 C-5.65555119 11.52733235 -5.65555119 11.52733235 -6 14 C-6.66 14 -7.32 14 -8 14 C-8.66 15.65 -9.32 17.3 -10 19 C-11 16 -11 16 -10.328125 14.09765625 C-6.31914014 6.52997106 -6.31914014 6.52997106 -4 4 C-3.34 4 -2.68 4 -2 4 C-1.34 2.68 -0.68 1.36 0 0 Z " fill="#EFD8C3" transform="translate(170,117)"/>
<path d="M0 0 C0.33 0 0.66 0 1 0 C1.59720137 5.82271337 -0.471757 9.9209404 -3 15 C-3.66 15 -4.32 15 -5 15 C-5.33 15.66 -5.66 16.32 -6 17 C-5.49487476 10.77012202 -2.67395877 5.54525767 0 0 Z " fill="#EFD7BB" transform="translate(153,315)"/>
<path d="M0 0 C4.78642607 0.5746621 8.53788787 1.98245643 12.875 4.0625 C14.60363281 4.88427734 14.60363281 4.88427734 16.3671875 5.72265625 C17.67042969 6.35494141 17.67042969 6.35494141 19 7 C15.97680647 8.31741179 14.78571426 7.92824489 11.58203125 6.85546875 C10.32033951 6.31133936 9.06389153 5.75491704 7.8125 5.1875 C7.17119141 4.91357422 6.52988281 4.63964844 5.86914062 4.35742188 C1.13679545 2.27359089 1.13679545 2.27359089 0 0 Z " fill="#EAD2B6" transform="translate(165,401)"/>
<path d="M0 0 C0.92758232 2.50447226 1.06415244 3.77838249 0.3125 6.375 C-1.21905595 9.4381119 -3.04202938 12.19357545 -5 15 C-5.33 14.34 -5.66 13.68 -6 13 C-5.0390625 10.21484375 -5.0390625 10.21484375 -3.625 6.9375 C-3.16351563 5.85339844 -2.70203125 4.76929687 -2.2265625 3.65234375 C-1 1 -1 1 0 0 Z " fill="#E9CEB0" transform="translate(278,112)"/>
<path d="M0 0 C0.99 0 1.98 0 3 0 C1.59155282 3.21524305 -0.10344786 5.32183868 -2.625 7.75 C-3.57246094 8.67039062 -3.57246094 8.67039062 -4.5390625 9.609375 C-5.02117187 10.06828125 -5.50328125 10.5271875 -6 11 C-6.66 10.67 -7.32 10.34 -8 10 C-7.34 9.01 -6.68 8.02 -6 7 C-5.34 7 -4.68 7 -4 7 C-3.67 5.02 -3.34 3.04 -3 1 C-2.34 1.33 -1.68 1.66 -1 2 C-0.67 1.34 -0.34 0.68 0 0 Z " fill="#EBCFB0" transform="translate(348,385)"/>
<path d="M0 0 C0.66 0.33 1.32 0.66 2 1 C1.63495936 6.66442374 0.9445679 11.00703705 -2 16 C-2.33 16 -2.66 16 -3 16 C-3.125 13.125 -3.125 13.125 -3 10 C-2.34 9.34 -1.68 8.68 -1 8 C-0.54188325 6.02764667 -0.54188325 6.02764667 -0.375 3.875 C-0.25125 2.59625 -0.1275 1.3175 0 0 Z " fill="#E8CCB0" transform="translate(355,367)"/>
<path d="M0 0 C0.515625 0.2475 1.03125 0.495 1.5625 0.75 C0.9025 0.75 0.2425 0.75 -0.4375 0.75 C-0.623125 1.389375 -0.80875 2.02875 -1 2.6875 C-2.4375 4.75 -2.4375 4.75 -6.0625 5.5 C-7.17625 5.5825 -8.29 5.665 -9.4375 5.75 C-9.4375 5.09 -9.4375 4.43 -9.4375 3.75 C-3.0375 -0.31153846 -3.0375 -0.31153846 0 0 Z " fill="#EACFAC" transform="translate(112.4375,198.25)"/>
<path d="M0 0 C0 0.66 0 1.32 0 2 C-3.51858133 5.25494123 -7.15409462 7.55946315 -12 8 C-4.43243243 0 -4.43243243 0 0 0 Z " fill="#E8CDAF" transform="translate(371,182)"/>
<path d="M0 0 C4.22489602 0.53280216 6.54080716 1.87678199 9.8125 4.5625 C10.60269531 5.20316406 11.39289063 5.84382812 12.20703125 6.50390625 C12.79871094 6.99761719 13.39039063 7.49132812 14 8 C13.01 8.495 13.01 8.495 12 9 C9.375 8.0625 9.375 8.0625 7 7 C7 6.01 7 5.02 7 4 C4.03 3.505 4.03 3.505 1 3 C0.67 2.01 0.34 1.02 0 0 Z " fill="#EED1B8" transform="translate(137,199)"/>
<path d="M0 0 C0.66 0.33 1.32 0.66 2 1 C1.1875 3.4375 1.1875 3.4375 0 6 C-0.99 6.33 -1.98 6.66 -3 7 C-3 7.99 -3 8.98 -3 10 C-3.99 10.33 -4.98 10.66 -6 11 C-4.54955729 6.89041233 -2.48889248 3.56741255 0 0 Z " fill="#EAD0B6" transform="translate(285,101)"/>
<path d="M0 0 C0.33 0 0.66 0 1 0 C0.64989059 9.17286652 0.64989059 9.17286652 -2.0625 12.625 C-2.701875 13.07875 -3.34125 13.5325 -4 14 C-3.36843005 8.94744036 -1.86540627 4.70406799 0 0 Z " fill="#E0C2A1" transform="translate(407,224)"/>
<path d="M0 0 C6.4925 -0.3675 6.4925 -0.3675 8.8125 1.3125 C9.89991036 2.85776736 10.95187897 4.42781846 12 6 C8.98782888 5.35550393 6.48344164 4.34977818 3.75 2.9375 C3.04359375 2.57527344 2.3371875 2.21304688 1.609375 1.83984375 C1.07828125 1.56269531 0.5471875 1.28554687 0 1 C0 0.67 0 0.34 0 0 Z " fill="#EBCEB0" transform="translate(185,208)"/>
<path d="M0 0 C2 3.75 2 3.75 2 6 C2.99 6 3.98 6 5 6 C5.99 7.485 5.99 7.485 7 9 C6.67 9.99 6.34 10.98 6 12 C3.35247996 9.42215154 1.05567935 7.08351902 -1 4 C-0.625 1.8125 -0.625 1.8125 0 0 Z " fill="#E8CEAE" transform="translate(272,185)"/>
<path d="M0 0 C0.66 0.33 1.32 0.66 2 1 C2.6328125 3.28515625 2.6328125 3.28515625 3.125 6.0625 C3.29257813 6.98160156 3.46015625 7.90070313 3.6328125 8.84765625 C3.75398437 9.55792969 3.87515625 10.26820313 4 11 C1.22355795 8.67137119 0.09655054 7.37877519 -0.8125 3.8125 C-0.874375 2.884375 -0.93625 1.95625 -1 1 C-0.67 0.67 -0.34 0.34 0 0 Z " fill="#E8CEB1" transform="translate(147,377)"/>
<path d="M0 0 C0.99 0.33 1.98 0.66 3 1 C3.33 4.63 3.66 8.26 4 12 C2 11 2 11 0.875 8.8125 C-0.08328236 5.73230669 -0.14915816 3.20690052 0 0 Z " fill="#EDD3B8" transform="translate(267,174)"/>
<path d="M0 0 C4.08963819 2.28538605 7.46362104 4.95706926 11 8 C7.30581799 8 5.22163822 6.71820705 2 5 C2 4.01 2 3.02 2 2 C1.34 2 0.68 2 0 2 C0 1.34 0 0.68 0 0 Z " fill="#EACFB8" transform="translate(280,230)"/>
<path d="M0 0 C2 2 2 2 2.125 4.625 C2.08375 5.40875 2.0425 6.1925 2 7 C1.360625 7.103125 0.72125 7.20625 0.0625 7.3125 C-0.618125 7.539375 -1.29875 7.76625 -2 8 C-2.33 8.99 -2.66 9.98 -3 11 C-2.44894091 7.0507432 -1.61064629 3.65079826 0 0 Z " fill="#EAD2B5" transform="translate(92,216)"/>
<path d="M0 0 C1.27875 0.28875 2.5575 0.5775 3.875 0.875 C4.95394531 1.11863281 4.95394531 1.11863281 6.0546875 1.3671875 C8 2 8 2 10 4 C8.02 4.99 8.02 4.99 6 6 C6 5.34 6 4.68 6 4 C4.02 3.34 2.04 2.68 0 2 C0 1.34 0 0.68 0 0 Z " fill="#E7CBB0" transform="translate(261,221)"/>
<path d="M0 0 C0.33 0 0.66 0 1 0 C1.49230769 7.38461538 1.49230769 7.38461538 -1 10.5 C-1.66 10.995 -2.32 11.49 -3 12 C-2.49202991 7.6822542 -1.80317221 3.96697886 0 0 Z " fill="#EBD2B2" transform="translate(340,214)"/>
<path d="M0 0 C2.475 0.99 2.475 0.99 5 2 C5 2.66 5 3.32 5 4 C6.32 4.66 7.64 5.32 9 6 C8.01 6.495 8.01 6.495 7 7 C4.5249829 5.88568235 2.32116581 4.41849022 0 3 C0 2.01 0 1.02 0 0 Z " fill="#EBD0B8" transform="translate(325,93)"/>
<path d="M0 0 C-1.43011973 0.86646667 -2.86940619 1.71781829 -4.3125 2.5625 C-5.51326172 3.27599609 -5.51326172 3.27599609 -6.73828125 4.00390625 C-9 5 -9 5 -12 4 C-8.81646865 0.10901724 -4.81837115 -1.60612372 0 0 Z " fill="#EAD6BD" transform="translate(338,398)"/>
<path d="M0 0 C3.57104439 1.87949705 5.54744301 3.17053157 7 7 C4.20171644 6.61402985 3.1794116 6.19863427 1.25 4.0625 C0 2 0 2 0 0 Z " fill="#E8CBB4" transform="translate(293,241)"/>
<path d="M0 0 C1.65 1.65 3.3 3.3 5 5 C4.67 5.66 4.34 6.32 4 7 C2.68 6.67 1.36 6.34 0 6 C0 4.02 0 2.04 0 0 Z " fill="#E9CEB0" transform="translate(151,208)"/>
<path d="M0 0 C2.875 0.25 2.875 0.25 6 1 C7.375 3.0625 7.375 3.0625 8 5 C2.25 3.375 2.25 3.375 0 0 Z " fill="#E9CCAF" transform="translate(176,203)"/>
<path d="M0 0 C0.33 0.66 0.66 1.32 1 2 C1.66 2 2.32 2 3 2 C3.33 3.98 3.66 5.96 4 8 C4.99 8.33 5.98 8.66 7 9 C6.34 9.66 5.68 10.32 5 11 C4.15841464 9.73461631 3.32700252 8.46246221 2.5 7.1875 C1.80390625 6.12595703 1.80390625 6.12595703 1.09375 5.04296875 C0 3 0 3 0 0 Z " fill="#F2DBC6" transform="translate(161,182)"/>
<path d="M0 0 C3.125 -0.1875 3.125 -0.1875 6 0 C4.8125 1.5 4.8125 1.5 3 3 C0.3125 3.1875 0.3125 3.1875 -2 3 C-1.34 2.01 -0.68 1.02 0 0 Z M-4 3 C-2 4 -2 4 -2 4 Z " fill="#DAAE7F" transform="translate(184,400)"/>
<path d="M0 0 C0.66 0.33 1.32 0.66 2 1 C1.67 4.63 1.34 8.26 1 12 C0.01 12 -0.98 12 -2 12 C-1.34 8.04 -0.68 4.08 0 0 Z " fill="#DFBA95" transform="translate(147,332)"/>
<path d="M0 0 C0.33 0 0.66 0 1 0 C1.34833144 4.87664009 0.41685712 7.77050005 -2 12 C-3.15957207 8.52128379 -2.77456651 7.65780355 -1.5625 4.3125 C-1.13130859 3.10013672 -1.13130859 3.10013672 -0.69140625 1.86328125 C-0.46324219 1.24839844 -0.23507813 0.63351562 0 0 Z " fill="#E4C8AB" transform="translate(153,315)"/>
<path d="M0 0 C0 3 0 3 -1 5 C-1.66 5 -2.32 5 -3 5 C-3 5.66 -3 6.32 -3 7 C-3.66 7 -4.32 7 -5 7 C-5.33 5.68 -5.66 4.36 -6 3 C-5.195625 2.690625 -4.39125 2.38125 -3.5625 2.0625 C-1.10919595 1.23664655 -1.10919595 1.23664655 0 0 Z " fill="#EBD4BA" transform="translate(402,239)"/>
<path d="M0 0 C0.66 0 1.32 0 2 0 C7 5.47619048 7 5.47619048 7 8 C3.70851757 6.86500606 3.0040131 6.00716624 1.25 2.875 C0.8375 1.92625 0.425 0.9775 0 0 Z " fill="#EDD0BB" transform="translate(167,193)"/>
<path d="M0 0 C0.99 0 1.98 0 3 0 C2.01 2.97 1.02 5.94 0 9 C-0.33 9 -0.66 9 -1 9 C-0.67 6.03 -0.34 3.06 0 0 Z " fill="#E8D0B7" transform="translate(337,168)"/>
<path d="M0 0 C2 1 2 1 3.1875 3.8125 C3.96421451 6.85961076 4.10096399 8.13749363 3 11 C1.66666667 8.33333333 0.33333333 5.66666667 -1 3 C-0.67 2.01 -0.34 1.02 0 0 Z " fill="#EED6BA" transform="translate(227,137)"/>
<path d="M0 0 C-5.41538462 4.06153846 -5.41538462 4.06153846 -8.375 3.75 C-8.91125 3.5025 -9.4475 3.255 -10 3 C-3.375 -1.125 -3.375 -1.125 0 0 Z " fill="#F0D7C1" transform="translate(184,112)"/>
<path d="M0 0 C0.33 1.32 0.66 2.64 1 4 C0.01 4.66 -0.98 5.32 -2 6 C-2.33 6.99 -2.66 7.98 -3 9 C-3.66 9 -4.32 9 -5 9 C-3.7508258 5.54074837 -2.32472205 2.85306797 0 0 Z " fill="#F1D8C3" transform="translate(181,264)"/>
<path d="M0 0 C2.475 0.495 2.475 0.495 5 1 C4.67 2.65 4.34 4.3 4 6 C2.62437146 4.71034824 1.29233607 3.37310707 0 2 C0 1.34 0 0.68 0 0 Z " fill="#E9CEAC" transform="translate(95,264)"/>
<path d="M0 0 C0.99 0 1.98 0 3 0 C3 3 3 3 2 5 C1.34 5 0.68 5 0 5 C-0.33 5.66 -0.66 6.32 -1 7 C-1.04254356 5.00045254 -1.04080783 2.99958364 -1 1 C-0.67 0.67 -0.34 0.34 0 0 Z " fill="#ECD3B7" transform="translate(225,201)"/>
<path d="M0 0 C2.9375 0.8125 2.9375 0.8125 6 2 C6.33 2.99 6.66 3.98 7 5 C3.74572241 4.43891766 2.12035493 3.54442592 0 1 C0 0.67 0 0.34 0 0 Z " fill="#EAD2B8" transform="translate(341,256)"/>
<path d="M0 0 C0.66 0.33 1.32 0.66 2 1 C2.1875 3.375 2.1875 3.375 2 6 C1.01 6.66 0.02 7.32 -1 8 C-0.67 5.36 -0.34 2.72 0 0 Z " fill="#DEBC98" transform="translate(338,223)"/>
<path d="M0 0 C0.33 0 0.66 0 1 0 C0.53199289 4.05606165 0.12046792 7.46588679 -2 11 C-2 8.36 -2 5.72 -2 3 C-1.34 3 -0.68 3 0 3 C0 2.01 0 1.02 0 0 Z " fill="#EDD8B7" transform="translate(342,157)"/>
</svg>
